<?xml version="1.0" encoding="UTF-8" standalone="no"?>
<!DOCTYPE svg PUBLIC "-//W3C//DTD SVG 1.1//EN" "http://www.w3.org/Graphics/SVG/1.1/DTD/svg11.dtd">
<svg width="100%" height="100%" viewBox="0 0 724 576" version="1.1" xmlns="http://www.w3.org/2000/svg" xmlns:xlink="http://www.w3.org/1999/xlink" xml:space="preserve" xmlns:serif="http://www.serif.com/" style="fill-rule:evenodd;clip-rule:evenodd;stroke-linecap:round;stroke-linejoin:round;stroke-miterlimit:1.5;">
    <g>
        <path d="M25.626,459.755C21.663,460.223 21.242,468.576 19.885,475.822C18.411,483.696 16.223,490.678 17.475,495.672C19.88,505.261 32.317,510.849 40.054,517.291C47.56,523.542 56.969,529.213 63.896,534.328C69.895,538.757 75.753,543.375 81.619,547.978C88.737,553.565 101.502,563.419 106.607,567.847C108.812,569.76 109.329,574.491 112.247,574.546C192.125,576.044 499.631,582.394 585.875,576.835C596.708,576.137 605.271,565.401 612.954,556.595C618.599,550.123 632.876,538.061 639.05,533.304C653.293,522.33 665.574,515.565 673.328,509.453C677.97,505.795 685.57,502.543 685.575,496.633C685.579,492.447 680.912,482.062 679.434,473.71C677.979,465.487 678.376,459.703 671.985,460.055C666.05,460.382 663.477,470.272 652.55,478.165C639.759,487.404 619.596,494.763 608.281,500.892C588.793,511.447 568.304,520.21 547.482,527.799C523.716,536.461 489.175,546.897 465.688,552.862C446.273,557.793 426.248,562.007 406.558,563.59C386.946,565.166 367.209,563.054 347.546,562.356C326.77,561.618 302.499,561.325 281.9,559.164C262.417,557.12 242.075,553.461 223.949,549.387C206.753,545.522 189.808,540.477 173.149,534.721C154.517,528.284 129.837,518.248 112.159,510.762C96.901,504.3 81.358,498.219 67.083,489.804C52.661,481.303 33.894,458.777 25.626,459.755Z" style="fill:white;stroke:rgb(122,122,122);stroke-width:3.54px;"/>
        <path d="M20.638,502.106C17.926,500.738 16.28,500.427 16.283,504.265C16.287,508.99 14.142,514.98 13.527,518.667C12.39,525.489 10.839,533.423 9.676,539.492C8.678,544.698 7.569,549.882 6.548,555.083C5.412,560.872 -3.5,572.902 2.862,574.222C20.036,577.787 94.856,579.225 109.595,576.472C118.184,574.867 98.48,563.703 91.298,557.7C81.619,549.608 64.787,534.117 43.75,520.517C34.109,514.285 25.029,504.32 20.638,502.106Z" style="fill:rgb(149,89,89);stroke:rgb(11,0,0);stroke-width:3.54px;"/>
        <g transform="matrix(-1,0,0,1,701.53,0.574482)">
            <path d="M20.638,502.106C17.926,500.738 16.28,500.427 16.283,504.265C16.287,508.99 14.142,514.98 13.527,518.667C12.39,525.489 10.839,533.423 9.676,539.492C8.678,544.698 7.569,549.882 6.548,555.083C5.412,560.872 -3.5,572.902 2.862,574.222C20.036,577.787 94.856,579.225 109.595,576.472C118.184,574.867 98.48,563.703 91.298,557.7C81.619,549.608 64.787,534.117 43.75,520.517C34.109,514.285 25.029,504.32 20.638,502.106Z" style="fill:rgb(149,89,89);stroke:rgb(11,0,0);stroke-width:3.54px;"/>
        </g>
    </g>
    <path d="M82.956,-0.443C82.051,1.985 82.643,7.607 82.879,13.623C83.119,19.734 83.037,26.251 86.39,30.198C95.328,40.719 121.896,55.806 136.589,62.686C148.35,68.193 161.673,69.755 174.545,71.476C189.279,73.447 208.176,73.494 224.991,74.511C242.72,75.583 262.252,77.226 280.915,77.91C301.625,78.669 329.135,78.971 349.255,79.065C366.717,79.147 384.182,78.937 401.638,78.476C420.65,77.974 443.614,77.038 463.328,76.055C482.203,75.113 503.236,74.363 519.919,72.575C534.536,71.008 551.816,68.857 563.421,65.325C572.865,62.452 581.707,56.912 589.55,51.387C597.293,45.934 603.68,38.64 610.483,32.18C613.883,28.952 614.005,18.634 614.996,14.008C616.57,6.657 616.648,4.813 615.503,1.436C613.751,-3.732 604.273,-2.197 599.289,-0.831C594.305,0.535 590.552,6.725 585.599,9.634C579.958,12.947 572.021,15.913 565.444,19.047C558.984,22.124 553.212,27.359 546.137,28.433C535.478,30.051 514.755,29.416 501.489,28.757C489.767,28.176 477.436,27.48 466.542,24.483C455.819,21.534 445.054,15.135 436.124,10.776C428.246,6.931 421.697,-0.976 412.959,-1.669C388.453,-3.615 314.613,-3.564 289.087,-0.896C278.143,0.248 269.921,10.015 259.802,14.339C248.585,19.131 234.897,24.873 221.781,27.861C208.188,30.958 191.917,33.547 178.243,32.922C165.089,32.32 150.723,27.854 139.736,24.109C130.071,20.816 119.383,14.331 112.317,10.452C107.118,7.598 102.238,2.652 97.344,0.836C92.83,-0.839 84.64,-4.954 82.956,-0.443Z" style="fill:white;stroke:rgb(122,122,122);stroke-width:3.54px;"/>
    <g id="Abdomen">
        <path id="RUQ" d="M86.591,34.274C83.924,39.127 93.599,66.422 96.255,82.082C98.85,97.389 101.56,112.738 102.522,128.233C103.531,144.471 102.973,164.176 102.308,179.508C101.717,193.127 99.804,207.94 98.531,220.227C97.39,231.246 96.622,243.156 94.672,253.235C92.863,262.582 89.638,271.602 86.831,280.699C84.396,288.59 74.875,304.615 74.916,311.875C74.928,313.959 73.333,313.517 75.868,314.174C86.861,317.022 111.673,321.631 139.82,323.635C184.01,326.782 236.406,326.38 256.34,324.62C266.861,323.691 266.343,304.515 271.66,296.884C276.33,290.179 281.74,283.781 288.239,278.83C295.564,273.249 306.719,268.935 315.609,263.399C322.306,259.229 341.49,261.882 349.022,256.723C352.8,254.136 350.77,244.914 350.783,240.947C350.923,198.044 354.705,109.193 351.575,82.235C350.814,75.678 338.583,79.742 332.002,79.205C322.19,78.403 305.804,77.917 292.699,77.426C278.547,76.896 262.279,76.861 247.093,76.026C228.442,75.001 198.281,73.029 180.793,71.274C167.838,69.974 153.585,68.548 142.162,65.497C131.72,62.707 121.519,58.169 112.257,52.965C103.03,47.781 89.258,29.421 86.591,34.274Z" style="fill:rgb(149,89,89);stroke:black;stroke-width:3.54px;"/>
        <g id="LUQ" transform="matrix(-1,0,0,1,699.511,0.977396)">
            <path d="M86.591,34.274C83.924,39.127 93.599,66.422 96.255,82.082C98.85,97.389 101.56,112.738 102.522,128.233C103.531,144.471 102.594,164.104 102.308,179.508C102.053,193.231 102.077,208.369 100.805,220.657C99.666,231.648 97.001,243.228 94.672,253.235C92.514,262.508 89.638,271.602 86.831,280.699C84.75,287.441 78.465,306.514 75.868,314.174C74.552,318.053 72.046,313.184 75.868,314.174C86.861,317.022 111.673,321.631 139.82,323.635C184.01,326.782 236.406,326.38 256.34,324.62C259.993,324.297 257.336,325.706 259.033,322.232C262.226,315.699 268.189,301.866 271.66,296.884C276.33,290.179 281.74,283.781 288.239,278.83C295.564,273.249 306.097,267.781 315.609,263.399C323.144,259.928 332.331,263.175 338.223,258.933C339.883,257.738 348.329,258.622 348.259,256.237C348.119,251.463 348.328,234.499 348.473,229.096C349.088,206.203 349.428,186.158 349.157,159.977C348.783,123.781 352.767,96.78 351.575,82.235C351.036,75.656 338.583,79.742 332.002,79.205C322.19,78.403 305.804,77.917 292.699,77.426C278.547,76.896 262.279,76.861 247.093,76.026C228.442,75.001 198.281,73.029 180.793,71.274C167.838,69.974 153.585,68.548 142.162,65.497C131.72,62.707 121.519,58.169 112.257,52.965C103.03,47.781 89.258,29.421 86.591,34.274Z" style="fill:rgb(149,89,89);stroke:black;stroke-width:3.54px;"/>
        </g>
        <path id="LLQ" d="M351.115,463.248C348.732,472.157 350.336,493.378 350.303,514.087C350.271,534.16 345.176,562.646 353.628,563.594C365.24,564.898 368.122,564.039 375.372,564.048C383.442,564.057 393.235,564.83 402.051,563.651C416.4,561.734 443.832,556.315 461.465,552.542C477.044,549.209 492.951,545.507 507.848,541.015C522.426,536.619 536.666,531.14 550.846,525.591C565.049,520.033 580.249,513.294 593.069,507.665C604.712,502.552 616.509,497.725 627.768,491.814C639.336,485.741 655.298,476.764 662.479,471.226C666.481,468.141 670.604,463.638 670.857,458.59C671.179,452.154 667.083,441.122 664.411,432.608C660.497,420.134 651.759,396.882 647.37,383.744C644.058,373.824 641.633,363.613 638.083,353.777C634.481,343.796 628.285,329.985 625.758,323.861C624.818,321.582 625.383,317.16 622.922,317.032C617.193,316.733 601.956,320.801 591.386,322.07C578.528,323.613 560.021,325.453 545.769,326.29C532.491,327.069 517.264,326.722 505.873,327.087C496.383,327.391 486.315,328.528 477.422,328.48C469.101,328.435 458.36,327.308 452.516,326.798C449.112,326.501 443.291,322.603 442.358,325.418C441.424,328.232 446.146,337.455 446.914,343.683C447.707,350.113 447.692,357.25 447.116,363.996C446.455,371.751 445.11,382.645 442.946,390.212C441.011,396.979 437.364,403.147 434.133,409.399C430.865,415.721 428.089,422.72 423.34,428.145C418.159,434.064 410.435,440.18 403.046,444.913C395.604,449.68 387.199,453.74 378.687,456.746C373.188,458.687 365.821,458.987 359.614,459.914C356.05,460.445 352.006,459.921 351.115,463.248Z" style="fill:rgb(149,89,89);stroke:black;stroke-width:3.54px;"/>
        <g id="RLQ" transform="matrix(-1,0,0,1,697.607,-0.945703)">
            <path d="M349.033,465.147C346.65,474.056 350.336,493.378 350.303,514.087C350.271,534.16 345.176,562.646 353.628,563.594C365.24,564.898 368.122,564.039 375.372,564.048C383.442,564.057 393.235,564.83 402.051,563.651C416.4,561.734 443.832,556.315 461.465,552.542C477.044,549.209 492.951,545.507 507.848,541.015C522.426,536.619 536.666,531.14 550.846,525.591C565.049,520.033 580.249,513.294 593.069,507.665C604.712,502.552 616.509,497.725 627.768,491.814C639.336,485.741 655.298,476.764 662.479,471.226C666.481,468.141 670.604,463.638 670.857,458.59C671.179,452.154 667.083,441.122 664.411,432.608C660.497,420.134 651.759,396.882 647.37,383.744C644.058,373.824 641.633,363.613 638.083,353.777C634.481,343.796 628.285,329.985 625.758,323.861C624.818,321.582 625.383,317.16 622.922,317.032C617.193,316.733 601.956,320.801 591.386,322.07C578.528,323.613 560.021,325.453 545.769,326.29C532.491,327.069 517.264,326.722 505.873,327.087C496.383,327.391 486.315,328.528 477.422,328.48C469.101,328.435 458.36,327.308 452.516,326.798C449.112,326.501 443.862,322.608 442.358,325.418C440.853,328.228 443.122,337.578 443.49,343.658C443.96,351.425 445.266,364.258 445.175,372.017C445.104,378.127 444.677,384.352 442.946,390.212C441.106,396.443 437.586,403.266 434.133,409.399C430.574,415.719 426.543,422.478 421.593,428.133C416.412,434.052 409.982,440.287 403.046,444.913C395.895,449.682 387.199,453.74 378.687,456.746C373.188,458.687 365.821,458.987 359.614,459.914C356.05,460.445 349.923,461.82 349.033,465.147Z" style="fill:rgb(149,89,89);stroke:black;stroke-width:3.54px;"/>
        </g>
        <g id="PU" transform="matrix(1.09576,0,0,1.10632,-23.9584,-29.2177)">
            <ellipse cx="340.724" cy="351.723" rx="87.614" ry="90.149" style="fill:rgb(149,89,89);stroke:black;stroke-width:3.22px;"/>
        </g>
    </g>
    <g transform="matrix(0.678837,0,0,0.678837,51.3564,77.5907)">
        <text x="137.01px" y="190.732px" style="font-family:'ArialMT', 'Arial', sans-serif;font-size:101.377px;">RUQ</text>
    </g>
    <g transform="matrix(0.678837,0,0,0.678837,210.331,253.596)">
        <text x="137.01px" y="190.732px" style="font-family:'ArialMT', 'Arial', sans-serif;font-size:101.377px;">PU</text>
    </g>
    <g transform="matrix(0.678837,0,0,0.678837,369.42,319.465)">
        <text x="137.01px" y="190.732px" style="font-family:'ArialMT', 'Arial', sans-serif;font-size:101.377px;">LLQ</text>
    </g>
    <g transform="matrix(0.678837,0,0,0.678837,-5.13454,322.641)">
        <text x="137.01px" y="190.732px" style="font-family:'ArialMT', 'Arial', sans-serif;font-size:101.377px;">RLQ</text>
    </g>
    <g transform="matrix(0.678837,0,0,0.678837,311.91,80.8807)">
        <text x="137.01px" y="190.732px" style="font-family:'ArialMT', 'Arial', sans-serif;font-size:101.377px;">LUQ</text>
    </g>
</svg>
