<?xml version="1.0" encoding="UTF-8" standalone="no"?>
<!DOCTYPE svg PUBLIC "-//W3C//DTD SVG 1.1//EN" "http://www.w3.org/Graphics/SVG/1.1/DTD/svg11.dtd">
<svg width="100%" height="100%" viewBox="0 0 1204 1087" version="1.1" xmlns="http://www.w3.org/2000/svg" xmlns:xlink="http://www.w3.org/1999/xlink" xml:space="preserve" xmlns:serif="http://www.serif.com/" style="fill-rule:evenodd;clip-rule:evenodd;stroke-linecap:round;stroke-linejoin:round;stroke-miterlimit:1.5;">
    <g id="Artboard1" transform="matrix(1,0,0,0.998394,-649.74,-812.242)">
        <rect x="649.74" y="813.549" width="1203.08" height="1088.07" style="fill:none;"/>
        <g transform="matrix(1,0,0,1.00161,60.9928,682.961)">
            <g transform="matrix(1,0,0,1,-2.97475,0.212989)">
                <g transform="matrix(1.16243,0,0,1.1132,-432.591,-8.69075)">
                    <ellipse cx="1393.64" cy="606.889" rx="419.546" ry="431.231" style="fill:rgb(34,45,68);"/>
                </g>
                <g transform="matrix(1,0,0,1,15.0786,-27.5428)">
                    <g transform="matrix(1.28777,0.00489524,-0.00489524,1.28777,-46.6093,-1137.68)">
                        <text x="680.032px" y="1482.17px" style="font-family:'BigCaslon-Medium', 'Big Caslon';font-weight:500;font-size:233.119px;fill:rgb(234,233,229);">I D</text>
                    </g>
                    <g transform="matrix(1.28778,0.0010759,-0.0010759,1.28778,595.855,-1133.59)">
                        <text x="680.032px" y="1482.17px" style="font-family:'BigCaslon-Medium', 'Big Caslon';font-weight:500;font-size:233.119px;fill:rgb(234,233,229);">!</text>
                    </g>
                    <g transform="matrix(1,0,0,1,-44.7647,26.7271)">
                        <g transform="matrix(0.213369,0.116302,-0.116302,0.213369,1482.12,209.968)">
                            <g>
                                <g transform="matrix(1,0,0,1,138.448,-8.12783)">
                                    <path d="M523.562,965.516C521.458,966.116 519.383,966.919 517.343,967.915C509.51,971.739 501.054,982.346 498.281,986.951C492.525,996.512 487.018,1005.25 481.935,1015.32C474.376,1030.3 465.046,1045.37 459.741,1061.32C455.816,1073.12 451.274,1084.96 447.647,1096.99C446.628,1100.37 445.308,1104.64 444.461,1108.08L444.085,1110.39C436.604,1122.06 416.106,1150.05 410.971,1155.24C395.056,1171.33 388.688,1180.56 387.73,1182.55C379.126,1200.48 386.905,1212.6 391.154,1218.26C397.123,1226.23 407.219,1234.69 424.902,1231.45C426.782,1231.11 436.174,1228.49 448.012,1218.53C477.391,1193.81 584.711,1092.85 629.34,1038.97C645.495,1019.47 653.998,1002.99 655.615,994.786C658.09,982.24 654.746,972.745 650.137,965.856C644.546,957.498 635.726,950.266 620.802,949.419C614.212,949.045 600.605,951.206 580.285,961.764C577.783,961.337 571.521,960.247 567.928,959.497C560.637,957.975 553.346,956.862 546.316,956.862C537.585,956.862 529.612,960.132 523.562,965.516Z" style="fill:rgb(0,176,245);"/>
                                </g>
                                <g transform="matrix(1,0,0,1,138.448,-8.12783)">
                                    <path d="M190.426,1077.95C193.34,1082.94 195.373,1087.34 196.877,1089.7C200.579,1095.51 204.492,1099.33 207.579,1101.8C209.03,1105.1 210.432,1108.11 211.517,1110.11C215.096,1116.73 218.985,1120.84 221.223,1122.93C231.709,1132.69 242.442,1134.63 250.483,1134.58C252.635,1139.75 255.131,1144.02 257.785,1147.55C258.514,1152.06 259.735,1155.62 261.015,1158.38C261.763,1163.77 263.739,1169.59 267.45,1175.76C269.961,1179.93 290.118,1207.6 301.906,1219.8C310.889,1229.09 319.696,1233.56 324.211,1235.14C337.229,1239.7 347.991,1237.62 356.153,1234.11C367.42,1229.27 377.707,1220.52 381.505,1203.39C381.959,1201.35 383.98,1193.14 380.565,1180.69C377.192,1168.39 357.72,1118.15 344.093,1098.85L343.986,1098.45C343.017,1095.11 341.833,1092.17 340.493,1089.59L340.489,1089.58C340.064,1088.08 339.365,1086.52 338.447,1084.94C338.228,1083.11 337.883,1081.2 337.398,1079.2C335.635,1071.92 328.97,1049.73 323.094,1036.86C321.77,1033.97 320.446,1029.68 320.216,1028.92C319.973,1018.7 316.874,1011.6 313.568,1006.74C311.623,997.893 307.957,992.6 305.106,989.145L305.008,988.854L305.104,989.143L304.945,988.955L303.34,984.925C303.232,981.513 302.687,977.99 301.688,974.35C301.275,972.844 300.754,971.245 300.073,969.588C299.362,965.463 298.173,962.204 297.3,960.115C292.81,949.362 285.213,941.787 274.727,937.249C268.095,934.378 258.562,931.713 245.748,935.389L245.599,935.441L243.312,935.216C232.541,934.74 221.472,936.658 210.758,935.453C205.865,934.902 187.624,936.099 183.655,936.372C172.043,934.929 157.518,936.175 147.66,939.101C135.657,942.665 127.426,949.101 122.866,954.219C115.077,962.961 111.858,972.66 111.451,982.199C111.044,991.759 113.246,1002.17 121.464,1012.35C133.347,1027.07 146.694,1039.61 161.506,1051.41C169.767,1057.99 178.168,1069.31 186.63,1075.4C187.642,1076.13 189.072,1077.08 190.426,1077.95ZM297.732,1195.91L297.745,1196.53C302.673,1197.18 307.051,1196.72 310.436,1196C306.217,1196.6 301.932,1196.57 297.732,1195.91ZM294.573,1195.3C286.34,1193.38 278.593,1189.02 272.51,1182.27C280.083,1190.67 287.908,1194.54 294.877,1196.04L294.573,1195.3Z" style="fill:rgb(222,247,253);"/>
                                </g>
                                <g>
                                    <g>
                                        <g transform="matrix(1,0,0,1,138.448,-8.12783)">
                                            <path d="M531.194,903.666L528.6,908.62C527.884,909.923 527.167,911.225 526.451,912.527L524.647,915.583C523.258,917.05 517.526,923.173 515.102,926.734C505.984,940.126 508.72,951.528 512.3,959.336C515.621,966.58 523.43,978.629 542.645,978.727C546.835,980.463 551.396,981.194 556.137,981.194C560.107,981.194 566.801,980.554 573.964,976.124C576.353,977.408 578.687,978.265 580.725,978.901C585.286,980.322 592.77,981.902 600.666,979.475C605.382,980.093 610.192,979.666 614.982,978.246L616.422,978.177L618.519,977.936C623.943,979.227 628.728,979.23 632.921,978.415C633.471,978.579 633.956,978.688 634.355,978.741C645.203,980.182 652.981,976.513 658.082,972.876C666.178,967.102 666.435,953.182 664.775,941.081C665.006,939.529 665.123,937.941 665.123,936.325C665.123,932.573 664.492,927.611 662.037,922.196C663.097,923.382 664.298,924.778 664.857,925.61C664.181,924.603 663.478,923.614 662.833,922.586C661.805,920.945 660.808,919.284 659.836,917.609C652.453,904.88 643.369,899.249 635.223,897.052C634.493,889.059 631.086,881.978 626.788,876.411C626.032,872.951 624.832,870.925 624.738,870.688C621.948,863.647 617.687,858.9 612.827,855.656C607.311,839.633 589.539,833.992 586.409,833.513C580.129,832.552 568.496,831.697 557.312,843.585C543.601,858.158 531.389,883.952 531.194,903.666Z" style="fill:rgb(0,208,255);"/>
                                        </g>
                                        <g transform="matrix(1,0,0,1,138.448,-8.12783)">
                                            <path d="M192.705,893.286L193.802,895.774C194.028,896.848 194.289,897.934 194.582,898.966L194.436,898.717L194.635,899.139L195.097,900.648C196.977,906.094 203.476,914.258 209.674,918.592C210.93,919.989 212.434,921.414 214.222,922.823C216.71,924.784 222.707,928.127 230.383,931.792C233.069,936.804 235.971,941.685 239.312,946.29C244.713,953.738 255.343,953.418 266.111,950.374C271.577,952.194 277.439,952.258 283.157,951.32C284.093,951.166 285.257,950.98 286.583,950.67C289.312,951.052 291.696,951.227 293.621,951.199C301.067,951.094 306.795,949.167 310.871,947.075C318.39,943.217 328.385,936.458 334.839,928.955C337.736,926.798 353.267,915.179 355.588,912.541C361.997,905.255 364.211,898.08 364.443,891.861L365.412,890.518L367.964,888.538L372.212,885.131L372.052,885.401C372.052,885.401 373.227,884.47 373.661,884.112C374.367,883.529 375.033,882.939 375.652,882.336L376.205,881.883L376.45,881.56C380.051,877.941 382.285,874.139 383.662,870.453C384.755,868.582 385.521,867.077 385.716,866.411C388.122,858.211 387.04,851.47 385.229,846.348C382.535,834.491 374.604,826.876 362.181,823.274C358.047,822.075 352.315,821.084 344.713,822.908C344.178,823.036 343.241,823.381 342.077,823.87C332.696,823.508 319.303,823.631 304.74,824.101C295.413,823.76 283.579,823.168 274.146,823.715C271.592,823.863 269.141,824.107 266.813,824.435C263.754,823.418 260.317,822.617 256.545,822.203C244.444,820.877 226.744,823.257 223.146,824.644C221.822,825.155 220.581,825.706 219.423,826.298C209.564,822.754 198.183,823.965 189.044,830.54C174.295,841.15 170.935,861.74 181.546,876.489C185.571,882.085 188.842,887.771 192.705,893.286ZM332.798,922.727C333.482,922.67 334.179,922.588 334.891,922.485L332.798,922.727ZM375.804,882.411L376.236,881.857L376.205,881.883L375.804,882.411C375.27,883.098 374.375,884.231 373.96,884.688C374.489,884.106 375.158,883.268 375.804,882.411Z" style="fill:rgb(131,226,253);"/>
                                        </g>
                                        <g transform="matrix(-1,0,0,1,914.818,-8.58749)">
                                            <path d="M364.389,892.868C363.962,898.85 361.653,905.646 355.588,912.541C353.267,915.179 337.736,926.798 334.839,928.955C328.587,936.223 319.01,942.793 311.578,946.7C310.324,948.314 307.166,952.331 304.336,955.689C303.15,957.097 300.257,960.118 300.257,960.118C300.257,960.118 300.906,959.341 301.178,958.973C301.491,958.552 302.289,957.355 302.289,957.355C302.289,957.355 286.837,972.309 284.263,973.283C276.944,976.052 270.27,975.883 264.459,974.409C257.223,972.574 250.504,968.621 245.319,961.029C243.437,958.272 240.733,953.895 239.846,946.994L239.312,946.29C225.404,927.115 219.097,903.178 203.824,885.015C195.702,875.357 194.618,865.324 196.839,855.866C198.328,849.526 202.636,837.512 218.976,831.512C221.902,830.438 228.623,829.384 237.596,828.431C244.981,824.946 252.65,823.025 257.636,823.086C261.033,823.128 264.163,823.596 267.037,824.408C269.297,824.092 271.673,823.858 274.146,823.715C284.473,823.116 297.677,823.882 307.322,824.185L311.832,824.056C314.775,824.001 317.718,823.945 320.66,823.889L326.495,823.844C328.221,823.773 329.949,823.727 331.679,823.727C332.771,823.727 333.822,823.769 334.828,823.865C337.701,823.888 340.347,823.949 342.719,824.041C359.633,824.696 369.975,830.056 372.243,831.728C383.1,839.735 385.765,849.739 385.783,858.395C385.8,866.147 383.762,875.771 373.661,884.112C372.736,884.875 368.284,889.133 364.389,892.868ZM253.594,963.838C255.268,965.003 257.039,966.003 258.878,966.833C257.075,966.035 255.303,965.05 253.594,963.838ZM258.986,966.883L258.957,966.869L259.208,966.974L258.986,966.883ZM252.586,963.102L252.868,963.312L252.651,963.155L252.586,963.102ZM268.799,969.535C275.881,970.334 283.271,968.841 289.79,964.791C282.288,969.452 275.173,970.339 268.799,969.535ZM305.262,939.004C305.342,940.035 305.383,941.106 305.383,942.222C305.383,942.547 305.338,943.857 305.338,943.857C305.338,943.857 305.326,941.682 305.262,939.004ZM332.975,922.712L334.891,922.485C334.239,922.579 333.601,922.656 332.975,922.712Z" style="fill:rgb(131,226,253);"/>
                                        </g>
                                        <g transform="matrix(1,0,0,1,-272.449,-9.15596)">
                                            <path d="M556.137,948.273C561.57,948.273 629.981,925.451 621.298,917.265C616.535,912.775 615.31,906.891 612.247,901.457C609.196,896.045 604.614,892.483 600.894,887.706C598.078,884.088 597.057,879.162 593.943,875.87C592.116,873.938 566.385,951.58 574.169,949.279C582.365,946.858 583.159,932.695 585.36,925.917C586.423,922.646 592.138,912.98 589.587,909.07C587.369,905.67 582.445,906.886 580.006,909.173C574.157,914.657 570.089,922.666 568.326,930.415C567.989,931.898 566.214,938.996 567.962,940.296C569.932,941.76 572.382,937.072 572.853,936.021C574.382,932.606 580.958,917.645 575.122,914.844C563.443,909.239 553.625,947.303 556.137,948.273C560.986,950.145 563.869,944.558 565.408,941.015C568.851,933.088 573.512,908.493 573.982,909.583C576.565,915.568 577.573,922.119 579.222,928.389C579.666,930.08 580.182,932.886 581.403,934.385C581.485,934.486 582.041,934.811 582.211,934.603C584.213,932.158 584.833,922.264 585.056,920.425C586.552,908.143 587.281,888.245 587.281,889.678L587.281,895.872C587.281,905.633 585.956,916.304 588.749,925.794C588.818,926.031 590.227,931.488 591.072,931.747C592.02,932.038 591.091,929.764 591.072,928.773C591.041,927.082 590.976,925.392 590.93,923.701C590.794,918.695 590.788,913.696 590.788,908.689C590.788,908.306 590.811,909.454 590.788,909.835C590.727,910.83 590.623,911.821 590.546,912.814C590.41,914.568 590.227,916.318 590.148,918.075C589.859,924.447 589.477,931.225 590.12,937.588C590.233,938.713 591.41,944.546 593.894,943.796C595.665,943.261 595.727,938.624 595.831,937.623C596.497,931.257 597.103,923.754 595.183,917.5C594.625,915.684 592.393,909.479 589.736,910.15C587.254,910.777 587.541,916.656 587.499,917.847C587.256,924.629 587.082,931.863 588.397,938.56C588.507,939.12 590.15,946.128 590.486,947.415C590.702,948.244 591.271,950.515 591.609,949.728C593.073,946.319 592.918,939.866 593.279,936.472C594.09,928.855 595.75,920.425 594.744,912.71C594.517,910.971 591.811,902.602 588.671,903.755C587.826,904.065 588.277,909.103 588.29,909.934C588.399,916.708 590.082,923.22 593.732,928.977C593.798,929.082 599.238,937.173 600.097,936.396C601.606,935.033 601.193,932.462 601.427,930.441C602.586,920.415 603.038,910.215 602.448,900.129C602.192,895.748 601.733,891.433 600.222,887.292C599.652,885.731 599.121,881.838 597.849,882.908C596.613,883.947 596.956,893.158 596.937,893.833C596.68,903.092 594.967,920.412 603.707,927.639C603.953,927.842 603.774,926.994 603.707,926.682C603.422,925.352 603.112,924.024 602.683,922.733C601.047,917.805 598.863,913.275 596.34,908.76C595.899,907.971 595.204,905.825 594.717,906.587C593.395,908.657 594.495,911.496 594.506,913.952C594.547,923.048 595.775,932.226 599.599,940.578C600.311,942.133 603.03,947.591 605.94,946.594C608.517,945.711 606.934,934.167 605.641,931.767C604.809,930.223 603.38,926.192 602.384,927.635C601.269,929.249 603.114,934.39 603.776,935.936C604.553,937.753 605.462,939.154 606.626,940.817C607.444,941.986 608.617,943.027 609.84,943.755C622.039,951.02 619.721,926.311 610.801,925.568C609.847,925.488 610.935,927.492 611.21,928.408C611.638,929.835 612.15,931.237 612.706,932.618C614.9,938.063 617.528,943.169 621.442,947.579C624.994,951.58 628.427,949.66 626.441,944.726C625.472,942.321 624.545,940.548 623.267,938.248C621.747,935.513 619.215,931.426 617.676,929.053C615.391,925.527 612.906,921.71 609.676,918.966C608.98,918.374 611.073,920.148 611.695,920.817C613.902,923.189 615.519,925.012 617.692,927.499C622.666,933.193 627.617,938.917 633.745,943.419C634.173,943.733 638.388,946.485 638.968,946.072C639.663,945.576 637.998,944.665 637.521,943.955C636.656,942.665 635.767,941.39 634.941,940.074C633.712,938.113 632.52,936.129 631.359,934.127C627.009,926.627 623.31,917.802 617.72,911.075C617.434,910.731 617.921,911.948 618.084,912.364C618.458,913.318 618.85,914.267 619.287,915.196C619.934,916.575 620.628,917.932 621.334,919.282C623.356,923.148 625.497,926.907 627.992,930.486C628.602,931.361 632.202,935.008 632.202,936.325" style="fill:rgb(183,238,252);"/>
                                            <path d="M554.777,882.691C552.319,884.357 548.947,887.183 546.037,891.935C537.135,900.003 528.325,918.066 524.963,931.667C523.734,936.64 523.297,941.299 523.344,945.466C523.256,946.392 523.216,947.328 523.216,948.273C523.216,953.402 524.392,958.259 526.49,962.59C526.806,963.36 527.103,963.968 527.349,964.401C531.337,971.391 536.691,975.592 542.281,978.131L543.328,978.605L544.165,978.935L544.28,978.984L544.37,979.016L544.823,979.195L546.067,979.616C552.308,981.707 558.314,981.981 563.887,980.926C569.132,982.629 574.98,982.967 581.528,981.375C588.197,983.585 594.803,983.303 601.139,981.358C602.502,980.94 603.993,980.426 605.546,979.739C606.858,979.714 608.175,979.609 609.493,979.427C621.388,985.364 633.079,982.768 640.583,979.021C648.249,978.695 654.016,975.775 658.082,972.876C666.178,967.102 666.435,953.182 664.775,941.081C665.006,939.529 665.123,937.941 665.123,936.325C665.123,932.573 664.492,927.611 662.037,922.196C663.097,923.382 664.298,924.778 664.857,925.61C664.181,924.603 663.478,923.614 662.833,922.586C661.805,920.945 660.808,919.284 659.836,917.609C654.778,908.888 650.118,898.877 643.739,890.905C642.816,888.926 641.768,886.785 640.924,885.289C637.252,878.776 632.186,874.089 627.653,868.448C626.174,865.658 621.468,857.062 617.862,853.25C613.22,848.342 608.04,845.216 602.357,843.775C584.62,825.739 559.389,828.706 554.777,882.691Z" style="fill:rgb(183,238,252);"/>
                                        </g>
                                        <g transform="matrix(1,0,0,1,138.448,-8.12783)">
                                            <path d="M334.555,929.102C333.014,933.657 325.344,937.74 323.171,942.274C316.653,955.875 400.313,879.937 400.313,880.824C400.313,894.62 400.37,908.417 400.313,922.213C400.259,935.268 399.829,947.719 398.002,960.616C397.665,963 396.762,938.867 396.762,929.932L396.762,914.405C396.762,907.014 390.669,890.378 397.817,892.258C415.502,896.909 412.882,938.623 428.069,944.1C431.104,945.195 427.684,937.642 427.089,934.472C425.535,926.203 423.783,917.969 421.836,909.784C414.323,878.2 416.385,905.204 424.251,922.755C429.492,934.451 428.774,933.765 433.627,945.571C434.586,947.904 438.823,953.529 436.487,952.577C428.847,949.465 440.612,938.468 454.986,960.029C455.884,961.376 453.448,957.181 452.639,955.779C445.316,943.102 438.402,930.078 430.952,917.503C429.512,915.072 433.436,922.591 434.949,924.977C437.755,929.401 440.778,933.683 443.634,938.075C452.403,951.561 454.883,943.92 453.723,937.54C453.576,936.728 455.011,938.578 455.596,939.16C464.034,947.556 463.334,947.567 471.874,956.485C480.015,964.987 442.278,954.15 423.775,953.818C381.81,953.066 345.053,927.888 352.163,954.747C352.947,957.708 341.629,949.18 341.644,946.117C341.675,939.849 352.102,933.018 352.296,926.753C352.672,914.618 361.996,935.131 354.993,935.965C349.992,936.56 362.378,880.559 365.707,908.298C367.664,924.607 367.311,941.152 367.311,957.54C367.311,963.858 368.13,939.901 369.288,921.604C369.939,911.313 370.921,898.459 372.051,887.904C372.348,885.131 372.719,876.914 373.329,879.635C375.112,887.582 373.404,901.179 373.404,908.64L373.404,954.502C373.404,989.372 373.386,904.11 373.404,900.125C373.51,875.405 383.246,918.061 384.384,923.03C385.678,928.679 387.116,934.376 388.077,940.096C388.26,941.188 388.077,937.882 388.077,936.775L388.077,921.426C388.077,907.119 383.405,861.292 387.616,861.594C392.072,861.913 407.648,929.511 408.983,944.516C409.11,945.945 409.019,941.638 408.842,940.215C407.266,927.568 405.555,920.873 402.765,907.443C401.445,901.092 400.047,894.756 398.775,888.394C397.184,880.433 394.358,875.177 396.212,887.406C399.05,906.122 402.797,925.961 408.656,944.019C411.791,953.68 441.805,957.859 454.05,963.387C454.326,963.512 351.934,952.598 362.267,959.487C364.976,961.293 357.81,954.712 355.915,952.065C353.832,949.155 356.819,950.279 359.028,952.979C366.657,962.304 345.683,959.637 340.602,959.724C331.981,959.873 300.603,960.478 314.651,961.924C330.347,963.539 344.423,963.768 360.268,963.944C386.435,964.237 448.179,924.861 439.756,915.385C436.606,911.842 438.369,909.183 430.12,904.784C430.068,904.756 437.495,916.714 443.872,924.769C445.297,926.569 440.549,921.584 439.087,919.813C431.193,910.251 430.102,908.625 422.587,898.06C409.535,879.711 377.245,872.479 382.445,871.893C408.16,869 461.803,949.838 480.105,959.806" style="fill:white;"/>
                                            <path d="M356.027,850.542C351.571,853.171 347.248,857.354 343.804,863.954C343.161,865.186 341.713,871.151 340.619,876.647C335.8,880.735 331.306,886.525 328.259,894.596L327.422,896.964C318.802,898.889 311.119,904.246 306.411,912.029C303.064,915.536 295.609,923.612 293.484,928.045C292.261,930.598 291.344,933.029 290.695,935.344L290.463,935.527C281.603,942.672 278.884,951.159 278.275,958.499C278.042,961.299 277.231,991.167 311.28,994.671C328.01,996.394 343.011,996.675 359.901,996.863C367.022,996.943 376.253,994.933 386.28,991.553C393.186,994.26 400.157,994.947 407.041,992.824C424.404,994.026 442.283,995.314 448.021,995.883C450.534,996.132 452.036,996.249 452.28,996.262C461.342,996.744 466.919,994.12 469.468,992.593L470.658,992.581C471.415,992.542 472.172,992.504 472.929,992.465L474.787,992.293C488.208,994.493 502.148,988.164 509.017,975.551C517.488,959.997 512.095,940.591 497.036,931.58C496.17,930.724 487.982,922.595 482.489,916.372C478.653,912.027 474.588,907.337 470.38,902.514C469.384,900.405 468.167,898.393 466.751,896.476C464.876,892.767 459.454,883.927 447.985,877.083C444.604,872.829 440.207,868.788 435.41,865.076L433.565,863.362C429.205,859.4 424.809,855.941 420.442,852.991C419.77,851.196 419.142,849.716 418.576,848.607C409.92,831.669 395.97,829.187 389.968,828.757C379.114,827.98 363.322,830.863 356.027,850.542Z" style="fill:rgb(222,247,253);"/>
                                        </g>
                                    </g>
                                    <path d="M319.804,827.465L402.69,956.342L529.229,825.207L654.998,955.196L727.668,830.214L817.548,959.964L242.215,957.801L319.804,827.465Z" style="fill:none;stroke:rgb(29,23,1);stroke-width:25.72px;"/>
                                    <path d="M319.804,827.465L402.69,956.342L529.229,826.015L654.998,955.196L727.668,830.214L817.548,959.964L242.215,957.801L319.804,827.465Z" style="fill:none;stroke:rgb(29,23,1);stroke-width:25.72px;"/>
                                </g>
                                <g transform="matrix(1,0,0,1,138.448,-8.12783)">
                                    <path d="M308.832,1093.44C309.543,1096.54 310.408,1099.3 311.435,1101.31C313.398,1105.14 315.64,1108.57 318.143,1111.6L318.198,1114.4C318.585,1122.98 320.536,1129.76 322.105,1133.77C326.807,1145.79 333.764,1153.56 341.345,1158.54C344.58,1162.52 348.477,1166.08 352.993,1169.04C376.724,1184.63 408.642,1178.01 424.224,1154.28C434.51,1138.61 443.809,1122.45 453.177,1106.3C458.938,1100.32 462.96,1093.26 465.235,1085.77L465.342,1085.59C474.942,1069.59 487.238,1055.64 498.021,1040.54C510.206,1023.47 508.828,1009.5 507.664,1001.65C505.547,987.396 498.731,976.245 487.573,967.829C482.596,964.075 476.349,960.695 468.406,958.767C465.226,957.995 450.85,958.649 443.694,959.036C433.534,957.887 425.27,958.226 418.463,959.456C407.906,958.601 393.794,958.551 382.966,959.227C377.467,957.543 371.328,956.539 364.59,956.559C359.531,956.573 353.961,957.427 348.511,958.712C340.971,957.406 331.953,956.172 325.976,956.293C310.31,956.61 299.13,962.429 292.769,967.136C276.662,979.058 269.651,995.038 271.686,1014.85C273.086,1028.46 277.734,1040.99 284.267,1052.92C287.432,1058.69 292.197,1063.81 294.129,1070.1C297.137,1079.89 301.259,1084.88 303.154,1087.26C305.01,1089.59 306.905,1091.64 308.832,1093.44ZM362.543,961.552L363.398,961.777L362.102,961.421L362.543,961.552Z" style="fill:rgb(183,238,252);"/>
                                    <g transform="matrix(1,0,0,1,-2.24185,-0.829671)">
                                        <path d="M340.95,1176.55L340.625,1183.05C340.625,1183.05 341.182,1181.4 341.54,1180.68C341.858,1180.05 342.177,1179.45 342.5,1178.88L342.784,1179.3C341.177,1181.9 339.779,1184.59 339.264,1186.49C336.283,1197.51 339.257,1205.79 343.677,1211.61C344.12,1216.47 345.916,1220.5 347.865,1223.69C347.675,1226.01 347.793,1227.99 347.972,1229.55C349.863,1246 364.755,1257.82 381.208,1255.93C392.7,1254.61 401.933,1246.95 405.804,1236.84C408.825,1232.01 421.456,1211.61 422.607,1206.79C423.302,1203.88 423.572,1201.18 423.541,1198.71C430.709,1187.3 436.143,1172.19 442.064,1161.11C442.893,1159.56 448.845,1140.99 448.796,1136.42C448.642,1122.05 440.544,1114.78 435.062,1111.2C421.191,1102.16 402.584,1106.07 393.538,1119.94C391.072,1123.73 389.57,1127.86 388.976,1132.05C381.734,1129.29 372.095,1128.15 359.655,1133.87C335.031,1145.18 336.586,1161.4 336.988,1167.28C337.161,1169.81 338.764,1173.13 340.95,1176.55ZM402.828,1216.75C402.434,1218.43 401.873,1220.09 401.12,1221.7C401.985,1219.93 402.64,1218.23 403.123,1216.59L402.828,1216.75ZM338.37,1193.86C338.32,1197.66 338.948,1202.33 341.502,1207.51C341.714,1207.94 342.555,1209.11 343.601,1210.5L343.613,1210.82L343.629,1211.02L343.174,1210.34C341.636,1207.96 338.193,1203.04 338.37,1193.86ZM350.339,1170.04C348.815,1170.97 346.537,1172.75 344.131,1176.26L344.237,1176.51L344.384,1176.82C346.017,1174.38 347.632,1172.32 348.546,1171.52L350.339,1170.04ZM384.84,1142.27L383.943,1141.22C383.943,1141.22 384.269,1141.6 384.832,1142.29L384.84,1142.27Z" style="fill:rgb(183,238,252);"/>
                                    </g>
                                </g>
                                <path d="M238.293,959.911L515.749,1281.82L819.7,961.967L728.524,828.421L530.61,825.968L320.676,826.374L238.293,959.911Z" style="fill:none;stroke:rgb(29,23,1);stroke-width:25.72px;"/>
                                <path d="M405.705,961.168L656.786,958.849L515.997,1280.35L405.705,961.168Z" style="fill:none;stroke:rgb(29,23,1);stroke-width:25.72px;"/>
                            </g>
                        </g>
                        <g transform="matrix(1.0888,0,0,1,-121.783,-31.0355)">
                            <path d="M1407.23,560.154C1460.75,560.154 1504.2,609.955 1504.2,671.295C1504.2,732.635 1460.75,782.435 1407.23,782.435C1353.71,782.435 1310.26,732.635 1310.26,671.295C1310.26,609.955 1353.71,560.154 1407.23,560.154ZM1407.23,589.208C1446.76,589.208 1478.85,625.99 1478.85,671.295C1478.85,716.6 1446.76,753.382 1407.23,753.382C1367.7,753.382 1335.61,716.6 1335.61,671.295C1335.61,625.99 1367.7,589.208 1407.23,589.208Z" style="fill:rgb(196,143,127);stroke:rgb(234,233,229);stroke-width:0.96px;"/>
                        </g>
                    </g>
                </g>
            </g>
            <g transform="matrix(1,0,0,1,-118.763,-825.256)">
                <g transform="matrix(0.491461,0.8709,-0.8709,0.491461,1914.19,89.8838)">
                    <text x="880.128px" y="1684.01px" style="font-family:'BigCaslon-Medium', 'Big Caslon';font-weight:500;font-size:75px;fill:rgb(234,233,229);">W</text>
                </g>
                <g transform="matrix(0.60958,0.792724,-0.792724,0.60958,1744.16,-44.5004)">
                    <text x="917.257px" y="1748.45px" style="font-family:'BigCaslon-Medium', 'Big Caslon';font-weight:500;font-size:75px;fill:rgb(234,233,229);">E</text>
                </g>
                <g transform="matrix(0.703497,0.710698,-0.710698,0.703497,1554.42,-143.741)">
                    <text x="949.479px" y="1791.05px" style="font-family:'BigCaslon-Medium', 'Big Caslon';font-weight:500;font-size:75px;fill:rgb(234,233,229);">D</text>
                </g>
                <g transform="matrix(0.794113,0.60777,-0.60777,0.794113,1320.98,-226.297)">
                    <text x="994.502px" y="1836.6px" style="font-family:'BigCaslon-Medium', 'Big Caslon';font-weight:500;font-size:75px;fill:rgb(234,233,229);">D</text>
                </g>
                <g transform="matrix(0.85038,0.526168,-0.526168,0.85038,1142.88,-269.714)">
                    <text x="1045.69px" y="1874.74px" style="font-family:'BigCaslon-Medium', 'Big Caslon';font-weight:500;font-size:75px;fill:rgb(234,233,229);">I</text>
                </g>
                <g transform="matrix(0.900049,0.435789,-0.435789,0.900049,931.25,-277.596)">
                    <text x="1070.79px" y="1891.34px" style="font-family:'BigCaslon-Medium', 'Big Caslon';font-weight:500;font-size:75px;fill:rgb(234,233,229);">N</text>
                </g>
                <g transform="matrix(0.950818,0.30975,-0.30975,0.950818,650.251,-255.595)">
                    <text x="1130px" y="1919.85px" style="font-family:'BigCaslon-Medium', 'Big Caslon';font-weight:500;font-size:75px;fill:rgb(234,233,229);">G</text>
                </g>
                <g transform="matrix(0.987162,0.159725,-0.159725,0.987162,325.7,-167.439)">
                    <text x="1204.41px" y="1942.32px" style="font-family:'BigCaslon-Medium', 'Big Caslon';font-weight:500;font-size:75px;fill:rgb(234,233,229);">P</text>
                </g>
                <g transform="matrix(0.998713,0.0507153,-0.0507153,0.998713,100.526,-61.0301)">
                    <text x="1252.88px" y="1950.38px" style="font-family:'BigCaslon-Medium', 'Big Caslon';font-weight:500;font-size:75px;fill:rgb(234,233,229);">L</text>
                </g>
                <g transform="matrix(0.998377,-0.0569457,0.0569457,0.998377,-109.104,77.5423)">
                    <text x="1306.03px" y="1953.14px" style="font-family:'BigCaslon-Medium', 'Big Caslon';font-weight:500;font-size:75px;fill:rgb(234,233,229);">A</text>
                </g>
                <g transform="matrix(0.983326,-0.181851,0.181851,0.983326,-332.05,279.644)">
                    <text x="1358.92px" y="1950.54px" style="font-family:'BigCaslon-Medium', 'Big Caslon';font-weight:500;font-size:75px;fill:rgb(234,233,229);">N</text>
                </g>
                <g transform="matrix(0.948243,-0.317545,0.317545,0.948243,-541.929,552.347)">
                    <text x="1423.45px" y="1938.63px" style="font-family:'BigCaslon-Medium', 'Big Caslon';font-weight:500;font-size:75px;fill:rgb(234,233,229);">N</text>
                </g>
                <g transform="matrix(0.910931,-0.412559,0.412559,0.910931,-658.517,783.591)">
                    <text x="1485.5px" y="1916.89px" style="font-family:'BigCaslon-Medium', 'Big Caslon';font-weight:500;font-size:75px;fill:rgb(234,233,229);">I</text>
                </g>
                <g transform="matrix(0.863676,-0.504047,0.504047,0.863676,-754.103,1022.46)">
                    <text x="1513.19px" y="1905.35px" style="font-family:'BigCaslon-Medium', 'Big Caslon';font-weight:500;font-size:75px;fill:rgb(234,233,229);">N</text>
                </g>
                <g transform="matrix(0.78751,-0.616302,0.616302,0.78751,-820.206,1365.32)">
                    <text x="1569.87px" y="1872.12px" style="font-family:'BigCaslon-Medium', 'Big Caslon';font-weight:500;font-size:75px;fill:rgb(234,233,229);">G</text>
                </g>
                <g transform="matrix(0.69925,-0.714877,0.714877,0.69925,-812.878,1713.14)">
                    <text x="1629.61px" y="1822.67px" style="font-family:'BigCaslon-Medium', 'Big Caslon';font-weight:500;font-size:75px;fill:rgb(234,233,229);">I</text>
                </g>
                <g transform="matrix(0.621402,-0.783492,0.783492,0.621402,-786.569,1975.93)">
                    <text x="1651.27px" y="1801.85px" style="font-family:'BigCaslon-Medium', 'Big Caslon';font-weight:500;font-size:75px;fill:rgb(234,233,229);">N</text>
                </g>
                <g transform="matrix(0.512202,-0.858865,0.858865,0.512202,-677.915,2306.83)">
                    <text x="1691.86px" y="1750.22px" style="font-family:'BigCaslon-Medium', 'Big Caslon';font-weight:500;font-size:75px;fill:rgb(234,233,229);">C</text>
                </g>
                <g transform="matrix(0.436543,-0.899683,0.899683,0.436543,-559.627,2506.02)">
                    <text x="1720.9px" y="1699.8px" style="font-family:'BigCaslon-Medium', 'Big Caslon';font-weight:500;font-size:75px;fill:rgb(234,233,229);">.</text>
                </g>
            </g>
        </g>
    </g>
</svg>
